<svg xmlns="http://www.w3.org/2000/svg" viewBox="0 0 760 412" width="760" height="412" font-family="ui-monospace, SFMono-Regular, 'SF Mono', Menlo, Consolas, 'Liberation Mono', 'Noto Sans CJK KR', monospace" role="img" aria-label="never-stale 가 없으면 자동 압축 후 어시스턴트가 영어로 돌아가고; 있으면 번체 중국어(홍콩)를 유지한다.">
  <style>
    .t{fill:#c9d1d9;font-size:13px;} .dim{fill:#6e7681;font-size:13px;}
    .ok{fill:#3fb950;font-size:13px;} .bad{fill:#f85149;font-size:13px;}
    .ns{fill:#e0936f;font-size:13px;font-weight:700;} .nstxt{fill:#d6c0b6;font-size:13px;}
    .lbl{font-size:13px;font-weight:700;} .ttl{fill:#8b949e;font-size:12px;}
  </style>
  <rect x="1" y="1" width="758" height="410" rx="10" fill="#0d1117" stroke="#30363d" stroke-width="1.5"/>
  <path d="M1 11 a10 10 0 0 1 10 -10 h738 a10 10 0 0 1 10 10 v25 h-758 z" fill="#161b22"/>
  <circle cx="22" cy="18.5" r="6" fill="#ff5f56"/><circle cx="42" cy="18.5" r="6" fill="#ffbd2e"/><circle cx="62" cy="18.5" r="6" fill="#27c93f"/>
  <text x="380" y="23" text-anchor="middle" class="ttl">긴 세션, 방금 자동 압축을 겪음</text>
  <line x1="1" y1="37" x2="759" y2="37" stroke="#30363d" stroke-width="1"/>

  <!-- Without -->
  <text x="28" y="66" class="bad lbl">✗  never-stale 없음</text>
  <text x="28" y="92" class="dim">──── 컨텍스트 자동 압축됨(세션 초반의 규칙이 요약으로 사라짐) ────</text>
  <text x="28" y="118" class="dim">› 幫我加個 login endpoint</text>
  <text x="28" y="144" class="t">Sure — I'll add the login endpoint and wire up the handler…</text>
  <text x="28" y="170" class="bad">↑ 영어로 돌아감 —— 번체 중국어(홍콩) 요구를 잊음</text>

  <line x1="24" y1="194" x2="736" y2="194" stroke="#21262d" stroke-width="1"/>

  <!-- With -->
  <text x="28" y="222" class="ok lbl">✓  never-stale 있음</text>
  <rect x="24" y="236" width="712" height="52" rx="6" fill="#1c1410" stroke="#5c3a2a" stroke-width="1"/>
  <rect x="24" y="236" width="4" height="52" rx="2" fill="#d97757"/>
  <text x="40" y="261" class="ns">[never-stale]<tspan class="nstxt" dx="6">자동 압축 발생 —— CLAUDE.md 재확인:</tspan></text>
  <text x="40" y="280" class="nstxt">구어 답변은 번체 중국어(홍콩) 유지.</text>
  <text x="28" y="316" class="dim">› 幫我加個 login endpoint</text>
  <text x="28" y="342" class="t">好,我而家加 login endpoint,順手 wire 埋 handler。</text>
  <text x="28" y="368" class="ok">↑ 번체 중국어(홍콩) 유지 —— 다시 알릴 필요 없음</text>

  <text x="28" y="398" fill="#484f58" font-size="12">시나리오 1 · 단독 개발자 · 로컬 마커가 압축을 넘어 당신의 언어를 유지</text>
</svg>
