<svg xmlns="http://www.w3.org/2000/svg" viewBox="0 0 760 472" width="760" height="472" font-family="ui-monospace, SFMono-Regular, 'SF Mono', Menlo, Consolas, 'Liberation Mono', 'Noto Sans CJK KR', monospace" role="img" aria-label="Claude Code 터미널: 자동 압축 후 never-stale 가 프로젝트 규칙을 다시 주입하므로 어시스턴트는 언어를 유지하고 문서를 동기화한다.">
  <defs>
    <style>
      .t  { fill:#c9d1d9; font-size:13px; }
      .dim{ fill:#6e7681; font-size:13px; }
      .ok { fill:#3fb950; font-size:13px; }
      .ns { fill:#e0936f; font-size:13px; font-weight:700; }
      .nstxt { fill:#d6c0b6; font-size:13px; }
      .cap{ fill:#8b949e; font-size:12px; }
      .ttl{ fill:#8b949e; font-size:12px; }
    </style>
  </defs>

  <!-- window -->
  <rect x="1" y="1" width="758" height="470" rx="10" fill="#0d1117" stroke="#30363d" stroke-width="1.5"/>
  <!-- title bar -->
  <path d="M1 11 a10 10 0 0 1 10 -10 h738 a10 10 0 0 1 10 10 v25 h-758 z" fill="#161b22"/>
  <circle cx="22" cy="18.5" r="6" fill="#ff5f56"/>
  <circle cx="42" cy="18.5" r="6" fill="#ffbd2e"/>
  <circle cx="62" cy="18.5" r="6" fill="#27c93f"/>
  <text x="380" y="23" text-anchor="middle" class="ttl">claude code — myproject</text>
  <line x1="1" y1="37" x2="759" y2="37" stroke="#30363d" stroke-width="1"/>

  <!-- transcript -->
  <text x="28" y="70" class="dim">› 세션 시작 두 시간째…</text>

  <!-- compact divider -->
  <text x="28" y="100" class="dim">────────  컨텍스트 자동 압축됨(대화 요약)  ────────</text>

  <!-- never-stale box #1 (compact) -->
  <rect x="24" y="116" width="712" height="60" rx="6" fill="#1c1410" stroke="#5c3a2a" stroke-width="1"/>
  <rect x="24" y="116" width="4" height="60" rx="2" fill="#d97757"/>
  <text x="40" y="141" class="ns">[never-stale]<tspan class="nstxt" dx="6">자동 압축 발생 —— CLAUDE.md 적용 여부 재확인:</tspan></text>
  <text x="40" y="162" class="nstxt">대화 · 작성 언어, 그리고 변경마다 관련 문서 동기화.</text>

  <!-- assistant keeps the rule -->
  <text x="28" y="206" class="ok">✓ 알겠습니다 —— 답변은 번체 중국어(홍콩), 작성은 영어 유지.</text>

  <!-- edit event -->
  <text x="28" y="244" class="dim">✎ 편집함  <tspan class="t">src/auth.ts</tspan></text>

  <!-- never-stale box #2 (edit) -->
  <rect x="24" y="260" width="712" height="40" rx="6" fill="#1c1410" stroke="#5c3a2a" stroke-width="1"/>
  <rect x="24" y="260" width="4" height="40" rx="2" fill="#d97757"/>
  <text x="40" y="285" class="ns">[never-stale]<tspan class="nstxt" dx="6">파일이 편집됨 —— README / CLAUDE.md 동기화 필요한지 확인.</tspan></text>

  <!-- assistant syncs docs -->
  <text x="28" y="330" class="ok">✓ 변경에 맞춰 README.md 와 CLAUDE.md 업데이트.</text>

  <!-- caption strip -->
  <line x1="24" y1="356" x2="736" y2="356" stroke="#21262d" stroke-width="1"/>
  <text x="28" y="384" class="cap">압축 직후 · 편집 직후 발동 · 적용한 프로젝트만.</text>
  <text x="28" y="406" class="cap">규칙은 <tspan fill="#c9d1d9">CLAUDE.md</tspan> 에; 마커가 프로젝트 단위 스위치.</text>

  <!-- footer brand -->
  <text x="28" y="448" fill="#484f58" font-size="12">never-stale · a Claude Code plugin</text>
  <text x="732" y="448" text-anchor="end" fill="#484f58" font-size="12">github.com/biznuts/never-stale</text>
</svg>
