<svg xmlns="http://www.w3.org/2000/svg" viewBox="0 0 760 330" width="760" height="330" font-family="ui-monospace, SFMono-Regular, 'SF Mono', Menlo, Consolas, 'Liberation Mono', 'Noto Sans CJK KR', monospace" role="img" aria-label="프로젝트에서 never-stale 관리: off 로 일시중지(되돌릴 수 있음)·on 으로 재개; remove 는 계획과 확인 후 설정을 철거하고 --dry-run 으로 미리보기; list 는 디스크의 적용된 또는 구버전 프로젝트를 찾는다.">
  <style>
    .cmd{fill:#e0936f;font-size:13px;font-weight:700;} .cm{fill:#6e7681;font-size:13px;}
    .grp{fill:#8b949e;font-size:12px;font-weight:700;letter-spacing:.5px;}
    .ttl{fill:#8b949e;font-size:12px;}
  </style>

  <!-- window chrome -->
  <rect x="1" y="1" width="758" height="328" rx="10" fill="#0d1117" stroke="#30363d" stroke-width="1.5"/>
  <path d="M1 11 a10 10 0 0 1 10 -10 h738 a10 10 0 0 1 10 10 v25 h-758 z" fill="#161b22"/>
  <circle cx="22" cy="18.5" r="6" fill="#ff5f56"/><circle cx="42" cy="18.5" r="6" fill="#ffbd2e"/><circle cx="62" cy="18.5" r="6" fill="#27c93f"/>
  <text x="380" y="23" text-anchor="middle" class="ttl">프로젝트에서 never-stale 관리</text>
  <line x1="1" y1="37" x2="759" y2="37" stroke="#30363d" stroke-width="1"/>

  <!-- PAUSE -->
  <rect x="28" y="56" width="9" height="9" rx="2" fill="#ffbd2e"/>
  <text x="44" y="65" class="grp">일시중지 · 되돌릴 수 있음</text>
  <text x="28"  y="90"  class="cmd">/never-stale:off</text>
  <text x="300" y="90"  class="cm"># 일시중지 · 게이트 조용, 아무것도 삭제 안 함</text>
  <text x="28"  y="114" class="cmd">/never-stale:on</text>
  <text x="300" y="114" class="cm"># 재개 · 같은 언어, 게이트 다시 발동</text>

  <!-- REMOVE -->
  <rect x="28" y="142" width="9" height="9" rx="2" fill="#f85149"/>
  <text x="44" y="151" class="grp">제거 · 철거</text>
  <text x="28"  y="176" class="cmd">/never-stale:remove</text>
  <text x="300" y="176" class="cm"># 계획 → 확인 → 이 프로젝트 설정 삭제</text>
  <text x="28"  y="200" class="cmd">/never-stale:remove --dry-run</text>
  <text x="300" y="200" class="cm"># 미리보기만 · 아무것도 제거 안 함</text>

  <!-- FIND -->
  <rect x="28" y="228" width="9" height="9" rx="2" fill="#58a6ff"/>
  <text x="44" y="237" class="grp">찾기</text>
  <text x="28"  y="262" class="cmd">/never-stale:list</text>
  <text x="300" y="262" class="cm"># 디스크의 적용된 / 구버전 프로젝트</text>

  <!-- footer -->
  <line x1="24" y1="286" x2="736" y2="286" stroke="#21262d" stroke-width="1"/>
  <text x="380" y="310" text-anchor="middle" fill="#484f58" font-size="12">모두 프로젝트 단위 · 플러그인은 머신 전체에 남음(/plugin uninstall 로 전부 제거)</text>
</svg>
