<svg xmlns="http://www.w3.org/2000/svg" viewBox="0 0 760 412" width="760" height="412" font-family="ui-monospace, SFMono-Regular, 'SF Mono', Menlo, Consolas, 'Liberation Mono', 'Noto Sans CJK JP', monospace" role="img" aria-label="never-stale なしでは自動圧縮後にアシスタントは英語に戻る；ありでは繁體中文（香港）を保つ。">
  <style>
    .t{fill:#c9d1d9;font-size:13px;} .dim{fill:#6e7681;font-size:13px;}
    .ok{fill:#3fb950;font-size:13px;} .bad{fill:#f85149;font-size:13px;}
    .ns{fill:#e0936f;font-size:13px;font-weight:700;} .nstxt{fill:#d6c0b6;font-size:13px;}
    .lbl{font-size:13px;font-weight:700;} .ttl{fill:#8b949e;font-size:12px;}
  </style>
  <rect x="1" y="1" width="758" height="410" rx="10" fill="#0d1117" stroke="#30363d" stroke-width="1.5"/>
  <path d="M1 11 a10 10 0 0 1 10 -10 h738 a10 10 0 0 1 10 10 v25 h-758 z" fill="#161b22"/>
  <circle cx="22" cy="18.5" r="6" fill="#ff5f56"/><circle cx="42" cy="18.5" r="6" fill="#ffbd2e"/><circle cx="62" cy="18.5" r="6" fill="#27c93f"/>
  <text x="380" y="23" text-anchor="middle" class="ttl">長いセッション、自動圧縮の直後</text>
  <line x1="1" y1="37" x2="759" y2="37" stroke="#30363d" stroke-width="1"/>

  <!-- Without -->
  <text x="28" y="66" class="bad lbl">✗  never-stale なし</text>
  <text x="28" y="92" class="dim">──── コンテキストが自動圧縮（冒頭のルールが要約で消える）────</text>
  <text x="28" y="118" class="dim">› 幫我加個 login endpoint</text>
  <text x="28" y="144" class="t">Sure — I'll add the login endpoint and wire up the handler…</text>
  <text x="28" y="170" class="bad">↑ 英語に戻った —— 繁體中文（香港）を望んだことを忘れた</text>

  <line x1="24" y1="194" x2="736" y2="194" stroke="#21262d" stroke-width="1"/>

  <!-- With -->
  <text x="28" y="222" class="ok lbl">✓  never-stale あり</text>
  <rect x="24" y="236" width="712" height="52" rx="6" fill="#1c1410" stroke="#5c3a2a" stroke-width="1"/>
  <rect x="24" y="236" width="4" height="52" rx="2" fill="#d97757"/>
  <text x="40" y="261" class="ns">[never-stale]<tspan class="nstxt" dx="6">自動圧縮が発生 —— CLAUDE.md を再確認：</tspan></text>
  <text x="40" y="280" class="nstxt">返信は繁體中文（香港）のまま。</text>
  <text x="28" y="316" class="dim">› 幫我加個 login endpoint</text>
  <text x="28" y="342" class="t">好,我而家加 login endpoint,順手 wire 埋 handler。</text>
  <text x="28" y="368" class="ok">↑ 繁體中文（香港）のまま —— 念押し不要</text>

  <text x="28" y="398" fill="#484f58" font-size="12">ケース 1 · 個人開発者 · ローカルマーカーが圧縮をまたいで言語を保つ</text>
</svg>
