<svg xmlns="http://www.w3.org/2000/svg" viewBox="0 0 760 412" width="760" height="412" font-family="ui-monospace, SFMono-Regular, 'SF Mono', Menlo, Consolas, 'Liberation Mono', 'Noto Sans CJK TC', monospace" role="img" aria-label="沒有 never-stale 時助手在自動壓縮後溜回英文；有 never-stale 時維持繁體中文（香港）。">
  <style>
    .t{fill:#c9d1d9;font-size:13px;} .dim{fill:#6e7681;font-size:13px;}
    .ok{fill:#3fb950;font-size:13px;} .bad{fill:#f85149;font-size:13px;}
    .ns{fill:#e0936f;font-size:13px;font-weight:700;} .nstxt{fill:#d6c0b6;font-size:13px;}
    .lbl{font-size:13px;font-weight:700;} .ttl{fill:#8b949e;font-size:12px;}
  </style>
  <rect x="1" y="1" width="758" height="410" rx="10" fill="#0d1117" stroke="#30363d" stroke-width="1.5"/>
  <path d="M1 11 a10 10 0 0 1 10 -10 h738 a10 10 0 0 1 10 10 v25 h-758 z" fill="#161b22"/>
  <circle cx="22" cy="18.5" r="6" fill="#ff5f56"/><circle cx="42" cy="18.5" r="6" fill="#ffbd2e"/><circle cx="62" cy="18.5" r="6" fill="#27c93f"/>
  <text x="380" y="23" text-anchor="middle" class="ttl">漫長 session，剛經歷自動壓縮</text>
  <line x1="1" y1="37" x2="759" y2="37" stroke="#30363d" stroke-width="1"/>

  <!-- Without -->
  <text x="28" y="66" class="bad lbl">✗  沒有 never-stale</text>
  <text x="28" y="92" class="dim">──── context 已自動壓縮（你 session 開頭的規則被摘要掉）────</text>
  <text x="28" y="118" class="dim">› 幫我加個 login endpoint</text>
  <text x="28" y="144" class="t">Sure — I'll add the login endpoint and wire up the handler…</text>
  <text x="28" y="170" class="bad">↑ 溜回了英文 —— 它忘記你要繁體中文（香港）</text>

  <line x1="24" y1="194" x2="736" y2="194" stroke="#21262d" stroke-width="1"/>

  <!-- With -->
  <text x="28" y="222" class="ok lbl">✓  有 never-stale</text>
  <rect x="24" y="236" width="712" height="52" rx="6" fill="#1c1410" stroke="#5c3a2a" stroke-width="1"/>
  <rect x="24" y="236" width="4" height="52" rx="2" fill="#d97757"/>
  <text x="40" y="261" class="ns">[never-stale]<tspan class="nstxt" dx="6">自動壓縮發生 —— 重新確認 CLAUDE.md：</tspan></text>
  <text x="40" y="280" class="nstxt">口語回覆維持繁體中文（香港）。</text>
  <text x="28" y="316" class="dim">› 幫我加個 login endpoint</text>
  <text x="28" y="342" class="t">好,我而家加 login endpoint,順手 wire 埋 handler。</text>
  <text x="28" y="368" class="ok">↑ 維持繁體中文（香港）—— 無需再提醒</text>

  <text x="28" y="398" fill="#484f58" font-size="12">情境 1 · 獨立開發者 · 本機標記檔跨壓縮維持你的語言</text>
</svg>
